<?xml version="1.0" standalone="no"?>
<!DOCTYPE svg PUBLIC "-//W3C//DTD SVG 20010904//EN"
 "http://www.w3.org/TR/2001/REC-SVG-20010904/DTD/svg10.dtd">
<svg version="1.0" xmlns="http://www.w3.org/2000/svg"
 width="512.000000pt" height="512.000000pt" viewBox="0 0 512.000000 512.000000"
 preserveAspectRatio="xMidYMid meet">
<metadata>
Created by potrace 1.14, written by Peter Selinger 2001-2017
</metadata>
<g transform="translate(0.000000,512.000000) scale(0.100000,-0.100000)"
fill="#000000" stroke="none">
<path d="M2379 5116 c-2 -2 -38 -6 -79 -10 -64 -6 -213 -30 -315 -51 -124 -26
-334 -97 -478 -161 -746 -336 -1299 -1030 -1456 -1829 -40 -200 -46 -267 -45
-515 0 -184 3 -241 19 -345 3 -16 7 -43 9 -60 16 -111 65 -303 115 -445 99
-282 283 -600 480 -825 69 -79 238 -241 321 -308 360 -289 753 -461 1240 -544
153 -26 592 -26 740 0 386 68 688 181 988 368 264 164 513 394 701 649 246
331 426 770 476 1160 27 212 27 561 1 715 -3 17 -8 44 -10 60 -3 17 -9 53 -15
80 -6 28 -13 61 -15 75 -11 56 -50 190 -78 270 -189 533 -523 966 -990 1284
-54 36 -101 66 -105 66 -3 0 -14 6 -22 14 -20 18 -257 137 -331 166 -153 61
-375 126 -494 144 -21 4 -41 8 -45 10 -3 2 -35 7 -71 11 -36 4 -76 10 -90 12
-31 5 -446 13 -451 9z"/>
</g>
</svg>
